<svg width="520" height="148" viewBox="0 0 520 148" xmlns="http://www.w3.org/2000/svg"><g fill="none" fill-rule="evenodd"><path d="M60.131 97.096c-12.668.086-22.994-8.185-23.688-23.609-.694-14.39 11.975-24.04 24.036-24.298 13.883-.345 22.213 15.51 22.213 15.51l35.836-13.184s-14.751-38.17-54.665-38.17C26.552 13.345.78 39.194.78 74.263c0 31.191 24.295 62.296 62.214 60.918 41.65-1.551 55.88-38.171 55.88-38.171l-36.79-12.15c.086-.172-7.463 12.236-21.954 12.236" fill="#3DAB53"/><path d="M60.131 97.096c-12.668.086-22.994-8.185-23.688-23.609-.694-14.39 11.975-24.04 24.036-24.298 13.883-.345 22.213 15.51 22.213 15.51l35.836-13.184s-14.751-38.17-54.665-38.17C26.552 13.345.78 39.194.78 74.263c0 31.191 24.295 62.296 62.214 60.918 41.65-1.551 55.88-38.171 55.88-38.171l-36.79-12.15c.086-.172-7.463 12.236-21.954 12.236" stroke="#006838" stroke-width="1.413"/><path d="M175.255 95.206c11.626 0 17.21-9.875 17.21-21.03 0-11.063-5.767-21.029-17.21-21.029-11.443 0-17.21 9.966-17.21 21.03 0 11.154 5.584 21.029 17.21 21.029zm0 12.618c-18.583 0-31.49-14.721-31.49-33.648 0-19.017 12.816-33.647 31.49-33.647 18.4 0 31.49 15.087 31.49 33.647 0 18.927-12.724 33.648-31.49 33.648zm57.763-67.295c5.126 0 17.942 1.92 17.942 9.144 0 3.565-2.38 6.766-6.134 6.766-3.753 0-6.682-2.743-12.175-2.743-3.936 0-7.506 2.103-7.506 5.943 0 9.417 30.575 3.383 30.575 26.972 0 13.075-10.802 21.213-23.435 21.213-7.048 0-22.244-1.646-22.244-10.24 0-3.567 2.38-6.493 6.133-6.493 4.302 0 9.429 3.566 15.379 3.566 6.042 0 9.337-3.383 9.337-7.863 0-10.789-30.575-4.297-30.575-25.51 0-12.8 10.528-20.755 22.703-20.755zm25.997 33.647c0-19.017 12.816-33.647 31.49-33.647 6.683 0 19.682 2.195 19.682 10.24 0 3.292-2.289 6.127-5.676 6.127-3.753 0-6.316-3.2-14.005-3.2-11.352 0-17.21 9.6-17.21 20.755 0 10.88 5.95 20.206 17.21 20.206 7.69 0 10.802-3.84 14.555-3.84 4.12 0 6.041 4.115 6.041 6.218 0 8.777-13.822 10.789-20.596 10.789-18.583 0-31.49-14.721-31.49-33.648zm58.495 25.967V48.21c0-4.572 2.93-7.132 6.866-7.132 3.936 0 6.866 2.56 6.866 7.132v19.383h28.744V48.21c0-4.572 2.929-7.132 6.865-7.132 3.936 0 6.866 2.56 6.866 7.132v51.933c0 4.572-2.93 7.132-6.866 7.132-3.936 0-6.865-2.56-6.865-7.132V80.211h-28.744v19.932c0 4.572-2.93 7.132-6.866 7.132-3.936 0-6.866-2.56-6.866-7.132zm64.446 0V48.21c0-4.572 2.929-7.132 6.865-7.132 3.936 0 6.866 2.56 6.866 7.132v51.933c0 4.572-2.93 7.132-6.866 7.132-3.936 0-6.865-2.56-6.865-7.132zm21.42 0V48.21c0-4.572 2.93-7.132 6.866-7.132 1.74 0 4.577 1.371 5.767 3.017l29.019 38.676h.183V48.21c0-4.572 2.929-7.132 6.865-7.132 3.937 0 6.866 2.56 6.866 7.132v51.933c0 4.572-2.93 7.132-6.866 7.132-1.739 0-4.485-1.372-5.767-3.017l-29.018-38.219h-.184v34.104c0 4.572-2.929 7.132-6.865 7.132-3.936 0-6.866-2.56-6.866-7.132zm59.96-2.286l18.4-49.739c1.556-4.206 5.126-7.589 9.795-7.589 4.851 0 8.238 3.2 9.795 7.59l17.942 49.738c.549 1.463.732 2.743.732 3.383 0 3.566-2.93 6.035-6.316 6.035-3.845 0-5.767-2.012-6.683-4.755l-2.746-8.594h-25.449l-2.746 8.503c-.915 2.834-2.838 4.846-6.59 4.846-3.663 0-6.775-2.743-6.775-6.4 0-1.463.458-2.56.64-3.018zm28.103-43.064l-8.696 26.515h17.393l-8.514-26.515h-.183z" fill="#111" fill-rule="nonzero"/></g></svg>