<?xml version="1.0" encoding="UTF-8"?>
<svg width="129px" height="32px" viewBox="0 0 129 32" version="1.1" xmlns="http://www.w3.org/2000/svg" xmlns:xlink="http://www.w3.org/1999/xlink">
    <!-- Generator: Sketch 54.1 (76490) - https://sketchapp.com -->
    <title>logo</title>
    <desc>Created with Sketch.</desc>
    <g id="Page-1" stroke="none" stroke-width="1" fill="none" fill-rule="evenodd">
        <g id="Artboard" transform="translate(-12.000000, -7.000000)">
            <g id="logo" transform="translate(13.000000, 8.000000)">
                <g id="C">
                    <path d="M14.8015997,20.6197183 C11.6832252,20.6408451 9.14153634,18.6126761 8.9706665,14.8309859 C8.79979666,11.3028169 11.9181712,8.93661972 14.8870346,8.87323944 C18.3044314,8.78873239 20.3548695,12.6760563 20.3548695,12.6760563 L29.1760248,9.44366197 C29.1760248,9.44366197 25.5450408,0.0845070423 15.7200251,0.0845070423 C6.53577131,0.0845070423 0.192228568,6.42253521 0.192228568,15.0211268 C0.192228568,22.6690141 6.1726729,30.2957746 15.5064378,29.9577465 C25.7586281,29.5774648 29.2614598,20.5985915 29.2614598,20.5985915 L20.2053584,17.6197183 C20.2267171,17.5774648 18.3685076,20.6197183 14.8015997,20.6197183" id="Path" fill="#3DAB53"></path>
                    <path d="M14.8015997,20.6197183 C11.6832252,20.6408451 9.14153634,18.6126761 8.9706665,14.8309859 C8.79979666,11.3028169 11.9181712,8.93661972 14.8870346,8.87323944 C18.3044314,8.78873239 20.3548695,12.6760563 20.3548695,12.6760563 L29.1760248,9.44366197 C29.1760248,9.44366197 25.5450408,0.0845070423 15.7200251,0.0845070423 C6.53577131,0.0845070423 0.192228568,6.42253521 0.192228568,15.0211268 C0.192228568,22.6690141 6.1726729,30.2957746 15.5064378,29.9577465 C25.7586281,29.5774648 29.2614598,20.5985915 29.2614598,20.5985915 L20.2053584,17.6197183 C20.2267171,17.5774648 18.3685076,20.6197183 14.8015997,20.6197183" id="Path" stroke="#006838" stroke-width="1.05941556"></path>
                </g>
                <path d="M43.1396823,20.15625 C46.0014083,20.15625 47.3759382,17.7350543 47.3759382,15 C47.3759382,12.2873641 45.9563418,9.84375 43.1396823,9.84375 C40.3230228,9.84375 38.9034264,12.2873641 38.9034264,15 C38.9034264,17.7350543 40.2779562,20.15625 43.1396823,20.15625 Z M43.1396823,23.25 C38.5654272,23.25 35.3882353,19.640625 35.3882353,15 C35.3882353,10.3369565 38.5428939,6.75 43.1396823,6.75 C47.6688708,6.75 50.8911292,10.4490489 50.8911292,15 C50.8911292,19.640625 47.7590039,23.25 43.1396823,23.25 Z M57.3581795,6.75 C58.6200429,6.75 61.7747016,7.22078804 61.7747016,8.99184783 C61.7747016,9.86616848 61.1888364,10.6508152 60.2649721,10.6508152 C59.3411078,10.6508152 58.6200429,9.97826087 57.2680464,9.97826087 C56.2991155,9.97826087 55.4203177,10.4938859 55.4203177,11.435462 C55.4203177,13.7445652 62.9464319,12.2649457 62.9464319,18.048913 C62.9464319,21.2547554 60.2875054,23.25 57.1779133,23.25 C55.442851,23.25 51.7023272,22.8464674 51.7023272,20.7391304 C51.7023272,19.8648098 52.2881924,19.1474185 53.2120567,19.1474185 C54.2711207,19.1474185 55.5329841,20.0217391 56.9976471,20.0217391 C58.4848433,20.0217391 59.2960412,19.1922554 59.2960412,18.09375 C59.2960412,15.4483696 51.769927,17.0400815 51.769927,11.8389946 C51.769927,8.70040761 54.3612538,6.75 57.3581795,6.75 Z M63.7576299,15 C63.7576299,10.3369565 66.9122885,6.75 71.5090769,6.75 C73.154006,6.75 76.3537312,7.28804348 76.3537312,9.26086957 C76.3537312,10.0679348 75.7903993,10.7629076 74.9566681,10.7629076 C74.0328038,10.7629076 73.401872,9.97826087 71.5090769,9.97826087 C68.7149506,9.97826087 67.272821,12.3322011 67.272821,15.0672554 C67.272821,17.7350543 68.7374839,20.0217391 71.5090769,20.0217391 C73.401872,20.0217391 74.1680034,19.080163 75.0918678,19.080163 C76.1058652,19.080163 76.579064,20.0889946 76.579064,20.6046196 C76.579064,22.7567935 73.1765393,23.25 71.5090769,23.25 C66.9348218,23.25 63.7576299,19.640625 63.7576299,15 Z M78.1563933,21.3668478 L78.1563933,8.63315217 C78.1563933,7.51222826 78.8774581,6.88451087 79.846389,6.88451087 C80.8153199,6.88451087 81.5363847,7.51222826 81.5363847,8.63315217 L81.5363847,13.3858696 L88.6118334,13.3858696 L88.6118334,8.63315217 C88.6118334,7.51222826 89.3328982,6.88451087 90.3018291,6.88451087 C91.27076,6.88451087 91.9918248,7.51222826 91.9918248,8.63315217 L91.9918248,21.3668478 C91.9918248,22.4877717 91.27076,23.1154891 90.3018291,23.1154891 C89.3328982,23.1154891 88.6118334,22.4877717 88.6118334,21.3668478 L88.6118334,16.4796196 L81.5363847,16.4796196 L81.5363847,21.3668478 C81.5363847,22.4877717 80.8153199,23.1154891 79.846389,23.1154891 C78.8774581,23.1154891 78.1563933,22.4877717 78.1563933,21.3668478 Z M94.0198197,21.3668478 L94.0198197,8.63315217 C94.0198197,7.51222826 94.7408845,6.88451087 95.7098154,6.88451087 C96.6787462,6.88451087 97.3998111,7.51222826 97.3998111,8.63315217 L97.3998111,21.3668478 C97.3998111,22.4877717 96.6787462,23.1154891 95.7098154,23.1154891 C94.7408845,23.1154891 94.0198197,22.4877717 94.0198197,21.3668478 Z M99.2926063,21.3668478 L99.2926063,8.63315217 C99.2926063,7.51222826 100.013671,6.88451087 100.982602,6.88451087 C101.410734,6.88451087 102.109266,7.22078804 102.402198,7.62432065 L109.545247,17.107337 L109.590313,17.107337 L109.590313,8.63315217 C109.590313,7.51222826 110.311378,6.88451087 111.280309,6.88451087 C112.24924,6.88451087 112.970305,7.51222826 112.970305,8.63315217 L112.970305,21.3668478 C112.970305,22.4877717 112.24924,23.1154891 111.280309,23.1154891 C110.852177,23.1154891 110.176179,22.779212 109.860713,22.3756793 L102.717664,13.0047554 L102.672598,13.0047554 L102.672598,21.3668478 C102.672598,22.4877717 101.951533,23.1154891 100.982602,23.1154891 C100.013671,23.1154891 99.2926063,22.4877717 99.2926063,21.3668478 Z M114.051902,20.8063859 L118.581091,8.6107337 C118.964156,7.5794837 119.842954,6.75 120.992151,6.75 C122.186415,6.75 123.020146,7.53464674 123.403212,8.6107337 L127.819734,20.8063859 C127.954933,21.1650815 128,21.4789402 128,21.6358696 C128,22.5101902 127.278935,23.1154891 126.445204,23.1154891 C125.498806,23.1154891 125.025608,22.6222826 124.800275,21.9497283 L124.124277,19.8423913 L117.860026,19.8423913 L117.184027,21.9273098 C116.958695,22.6222826 116.485496,23.1154891 115.561632,23.1154891 C114.660301,23.1154891 113.894169,22.4429348 113.894169,21.5461957 C113.894169,21.1875 114.006836,20.9184783 114.051902,20.8063859 Z M120.969618,10.2472826 L118.828957,16.7486413 L123.110279,16.7486413 L121.014684,10.2472826 L120.969618,10.2472826 Z" id="OSCHINA" fill="#FFFFFF" fill-rule="nonzero"></path>
            </g>
        </g>
    </g>
</svg>